<?xml version="1.0" encoding="UTF-8" standalone="no"?>
<!-- Created with Inkscape (http://www.inkscape.org/) -->

<svg
   width="160.07292mm"
   height="40.481251mm"
   viewBox="0 0 160.07292 40.481251"
   version="1.1"
   id="svg1"
   xml:space="preserve"
   sodipodi:docname="box.svg"
   inkscape:version="1.3.2 (091e20e, 2023-11-25)"
   xmlns:inkscape="http://www.inkscape.org/namespaces/inkscape"
   xmlns:sodipodi="http://sodipodi.sourceforge.net/DTD/sodipodi-0.dtd"
   xmlns="http://www.w3.org/2000/svg"
   xmlns:svg="http://www.w3.org/2000/svg"><sodipodi:namedview
     id="namedview1"
     pagecolor="#ffffff"
     bordercolor="#000000"
     borderopacity="0.25"
     inkscape:showpageshadow="2"
     inkscape:pageopacity="0.0"
     inkscape:pagecheckerboard="false"
     inkscape:deskcolor="#d1d1d1"
     inkscape:document-units="mm"
     inkscape:zoom="1.1124532"
     inkscape:cx="366.30756"
     inkscape:cy="110.117"
     inkscape:window-width="1920"
     inkscape:window-height="1125"
     inkscape:window-x="2256"
     inkscape:window-y="0"
     inkscape:window-maximized="1"
     inkscape:current-layer="layer1" /><defs
     id="defs1" /><g
     inkscape:label="Layer 1"
     inkscape:groupmode="layer"
     id="layer1"
     transform="translate(-24.905781,-128.25937)"
     style="fill:#000000;fill-opacity:1"><path
       id="path50"
       style="fill:#9ecb2e;fill-opacity:1;stroke:#9ecb2e;stroke-width:1;stroke-opacity:1"
       d="m 46.355656,157.0369 7.603589,-4.10358 z m 55.205064,-12.50961 7.39168,0.34047 -6.99549,-0.59573 z m 0.55338,-0.0365 7.03938,0.30995 z m -3.611217,-6.74293 35.605947,0.31527 z m 0.583343,0.41645 34.763734,0.42193 z m 0.825529,0.40991 34.481105,0.50591 z m 2.027495,5.59313 6.95062,0.12213 z m 0.13322,-0.0357 6.72017,0.13137 z m -19.179315,14.00449 5.04961,-4.31013 z m -36.65578,-1.40091 6.807552,-3.78998 z m -0.260948,-0.27436 7.86682,-4.6128 z m 5.857426,-20.17039 v 5.2e-4 5.2e-4 5.1e-4 c -0.867293,0.0307 -1.157713,0.17361 -1.70894,0.45786 -0.611595,0.31538 -1.826474,0.76777 -2.699576,1.0051 -0.873102,0.23733 -2.420962,0.71049 -3.439584,1.05162 -1.735132,0.58108 -1.857636,0.6735 -1.937866,1.46658 -0.133323,1.31785 0.152371,2.09651 0.769462,2.09651 0.297836,0 0.772208,0.12347 1.053683,0.27388 0.4651,0.24893 0.511596,0.58276 0.511596,3.66593 0,4.16059 0.490329,10.36188 0.854729,10.81071 0.393449,0.48465 1.096803,0.40445 1.883605,-0.21446 0.626492,-0.4928 0.658022,-0.60052 0.331246,-1.12448 -0.489147,-0.78413 -0.8422,-11.98106 -0.394808,-12.52016 0.340417,-0.41018 5.127386,-0.53132 5.371766,-0.13591 0.07703,0.12463 0.214171,2.01232 0.304891,4.19509 0.154552,3.71924 0.129002,4.03896 -0.404627,5.08496 -0.31318,0.61388 -0.532705,1.22414 -0.487825,1.35599 0.04488,0.13184 0.690329,-0.0424 1.434537,-0.38757 1.01363,-0.4701 1.399422,-0.81141 1.536857,-1.35909 0.100927,-0.40211 0.100794,-2.55804 -0.0021,-4.79092 l -0.186035,-4.06022 1.95647,0.001 c 1.075968,7.5e-4 4.159195,0.11271 6.851261,0.24908 2.69209,0.13636 7.490565,0.3278 10.662915,0.4253 7.103421,0.21839 6.521881,-0.2595 6.839893,5.62291 0.192253,3.55634 0.696871,7.44263 1.18339,9.11314 0.228892,0.78589 0.893151,0.52132 2.444812,-0.97358 0.820043,-0.79005 1.966125,-1.81214 2.547132,-2.27118 0.580983,-0.45904 1.150436,-0.97333 1.265555,-1.14308 0.115142,-0.16975 0.180718,-2.36198 0.145728,-4.87102 -0.0369,-2.64563 0.04288,-4.6666 0.189652,-4.81056 0.154288,-0.1513 2.939263,-0.17713 7.132898,-0.0651 l 6.72983,0.1788 c 0.0517,-0.0444 0.12883,-0.0796 0.23151,-0.0941 0.0603,-0.008 0.12123,-0.0132 0.1819,-0.0186 0.0194,-0.002 0.038,-0.003 0.0558,-0.003 0.10161,0.001 0.17574,0.0322 0.22117,0.077 0.0456,-0.0417 0.10696,-0.0774 0.20464,-0.0899 0.14522,-0.0186 0.29205,-0.024 0.43822,-0.0294 0.12903,-0.005 0.25793,-0.007 0.38705,-0.009 0.1243,-0.001 0.2488,-0.002 0.37311,-0.002 0.0613,0.004 0.12369,-0.003 0.18552,-0.002 0.0206,5.4e-4 0.0411,0.002 0.0615,0.005 0.0744,0.0114 0.11479,0.0262 0.18397,0.0476 0.41684,0.10105 0.84526,0.1471 1.27072,0.19688 0.31765,0.0374 0.63634,0.0708 0.95653,0.0667 0.0124,-4e-4 0.0248,-0.001 0.0372,-0.002 0.0136,-0.0885 0.101,-0.16756 0.25683,-0.1726 0.023,-7.5e-4 0.0475,0.001 0.0734,0.003 0.0744,0.008 0.0367,0.003 0.11266,0.0139 0.0632,0.0132 0.12561,0.0299 0.18965,0.0388 0.16036,0.0223 0.24595,0.0985 0.26665,0.17983 0.70006,-0.051 1.61682,-0.0768 3.27629,-0.0765 2.42717,5.3e-4 6.11756,0.0789 8.20001,0.17415 l 3.78633,0.17312 -0.0822,6.50658 c -0.0736,5.82969 -0.0334,6.596 0.38757,7.36647 1.4106,2.5818 2.61105,-0.77815 3.14296,-8.79739 0.18012,-2.71558 0.43814,-4.85369 0.60048,-4.97489 0.15659,-0.1169 1.3563,-0.14345 2.66599,-0.0568 1.30969,0.0856 8.91813,0.21514 16.9075,0.28784 7.98915,0.0727 14.62716,0.1948 14.75103,0.2713 0.12386,0.0766 0.21616,2.42976 0.20516,5.22914 -0.0222,5.6387 0.28098,7.11518 1.78232,8.68216 1.46553,1.52968 1.63246,0.82142 1.66656,-7.07606 0.0147,-3.41032 0.0901,-6.36638 0.16795,-6.5691 0.0778,-0.20271 0.65872,-0.44626 1.29088,-0.54106 0.66396,-0.0996 1.21535,-0.34384 1.30535,-0.57826 0.26503,-0.69054 0.1651,-1.78688 -0.22583,-2.47891 -0.20551,-0.3638 -0.56132,-1.01864 -0.79065,-1.45521 -0.22933,-0.43649 -0.70317,-1.15093 -1.05265,-1.5875 l -0.6351,-0.79375 -17.15709,-0.16123 c -8.61847,-0.0808 -12.68269,-0.15765 -15.54376,-0.28526 -0.11214,0.29559 -0.42717,0.57692 -0.97927,0.71159 -0.0692,0.0169 -0.13854,0.0337 -0.20774,0.0506 -0.33334,0.0654 -0.66763,0.14303 -1.00975,0.13333 -0.74483,-0.0211 -1.15589,-0.36818 -1.23404,-0.74156 -0.14201,-0.005 -0.28381,-0.0148 -0.42581,-0.0181 -1.20364,-0.0188 -2.40739,-0.0169 -3.61115,-0.0191 -0.10903,-0.001 -0.21807,6.1e-4 -0.32711,0 -0.36333,0.0458 -0.72509,0.10558 -1.09141,0.12506 -0.71362,0.0255 -1.4263,0.0127 -2.13785,-0.0537 -0.64127,-0.0606 -1.2813,-0.13555 -1.92495,-0.16795 -0.23896,-0.0244 -0.47476,-0.0713 -0.71262,-0.10336 -0.18941,0.12444 -0.44775,0.21474 -0.77876,0.24392 -0.16463,0.0145 -0.0808,0.007 -0.25011,0.0238 -0.304,0.0336 -0.6085,0.0762 -0.91519,0.0641 -0.36062,-0.0142 -0.64275,-0.10539 -0.84698,-0.23823 -0.40143,0.071 -0.80355,0.13899 -1.21285,0.14263 -0.56563,0.0132 -1.1327,-0.009 -1.69498,-0.0739 -0.37428,-0.0526 -0.74632,-0.12188 -1.11053,-0.22428 -0.0306,-0.009 -0.0596,-0.0185 -0.0889,-0.0279 -0.17463,0.0537 -0.37073,0.0905 -0.61392,0.0796 -0.53032,-0.0237 -1.0607,-0.055 -1.58698,-0.12764 -0.42614,-0.0502 -0.85391,-0.0721 -1.28055,-0.11731 -0.0634,-0.006 -0.12675,-0.01 -0.19016,-0.0134 -0.13066,0.0386 -0.2724,0.0692 -0.43822,0.0796 -0.44421,0.0279 -0.88851,0.035 -1.33325,0.0522 -0.70056,0.0339 -1.39996,0.092 -2.10117,0.11214 h -1.81797 -1.05369 c -0.30579,0 -0.53403,-0.07 -0.72708,-0.16278 -0.0137,-0.004 -0.0228,-0.006 -0.045,-0.0114 -0.0295,-0.009 -0.0583,-0.019 -0.0873,-0.0289 -0.0783,0.042 -0.17907,0.0654 -0.29973,0.061 -0.0498,0.0174 -0.0808,0.0457 -0.14107,0.0563 -0.0765,0.0134 -0.15355,0.0274 -0.22841,0.0486 -0.3901,0.11026 -0.648242,-0.0208 -0.71831,-0.21187 -0.228623,0.008 -0.356807,0.019 -0.669726,0.0232 -5.569118,0.0747 -33.328404,-0.74817 -42.015007,-1.2454 -2.858683,-0.16364 -4.302934,-0.24516 -5.170227,-0.21446 z m 32.605762,7.98246 c 0.857931,-0.0443 1.652977,0.0152 1.766817,0.13229 0.11384,0.11703 0.284879,2.13413 0.380339,4.48242 0.187424,4.6109 0.02161,5.45001 -1.288294,6.50658 v -5.2e-4 c -0.731285,0.58999 -1.419907,0.59712 -1.598352,0.006 -0.342177,-1.12468 -0.971357,-7.57906 -0.899687,-9.22889 l 0.07906,-1.81746 z" /></g></svg>
