<?xml version="1.0" encoding="UTF-8" standalone="no"?>
<!-- Created with Inkscape (http://www.inkscape.org/) -->

<svg
   width="297mm"
   height="105mm"
   viewBox="0 0 297 105"
   version="1.1"
   id="svg1"
   inkscape:version="1.3.2 (091e20e, 2023-11-25)"
   sodipodi:docname="pocketledge-sticker.svg"
   inkscape:export-filename="../../../../Pictures/pocketledge-sticker.png"
   inkscape:export-xdpi="96"
   inkscape:export-ydpi="96"
   xmlns:inkscape="http://www.inkscape.org/namespaces/inkscape"
   xmlns:sodipodi="http://sodipodi.sourceforge.net/DTD/sodipodi-0.dtd"
   xmlns="http://www.w3.org/2000/svg"
   xmlns:svg="http://www.w3.org/2000/svg">
  <sodipodi:namedview
     id="namedview1"
     pagecolor="#092e43"
     bordercolor="#000000"
     borderopacity="0.25"
     inkscape:showpageshadow="2"
     inkscape:pageopacity="0.0"
     inkscape:pagecheckerboard="0"
     inkscape:deskcolor="#d1d1d1"
     inkscape:document-units="mm"
     inkscape:zoom="0.37386238"
     inkscape:cx="516.23274"
     inkscape:cy="-70.881697"
     inkscape:window-width="1920"
     inkscape:window-height="1125"
     inkscape:window-x="2256"
     inkscape:window-y="0"
     inkscape:window-maximized="1"
     inkscape:current-layer="layer1"
     showgrid="false"
     inkscape:export-bgcolor="#092e43ff" />
  <defs
     id="defs1" />
  <g
     inkscape:label="Layer 1"
     inkscape:groupmode="layer"
     id="layer1">
    <text
       xml:space="preserve"
       style="font-size:33.8667px;font-family:'Gloria Hallelujah';-inkscape-font-specification:'Gloria Hallelujah';fill:#9ecb2e;stroke:#9ecb2e;stroke-width:1;fill-opacity:1"
       x="8.1595936"
       y="40.708645"
       id="text1"><tspan
         sodipodi:role="line"
         id="tspan1"
         style="font-size:33.8667px;stroke-width:1;fill:#9ecb2e;fill-opacity:1"
         x="8.1595936"
         y="40.708645">POCKETLEDGE.DE</tspan></text>
    <path
       id="path50"
       style="fill:#9ecb2e;fill-opacity:1;stroke:#9ecb2e;stroke-width:1.82899;stroke-opacity:1"
       d="m 17.990976,88.120828 16.75712,-6.228794 z M 139.6543,69.132583 155.94441,69.64938 140.52744,68.745126 Z m 1.21956,-0.0554 15.51369,0.470471 z m -7.95855,-10.235046 78.46994,0.478546 z m 1.28559,0.632126 76.61384,0.640444 z m 1.81934,0.622199 75.99097,0.767917 z m 4.46828,8.489771 15.31808,0.18538 z m 0.2936,-0.05419 14.8102,0.199406 z M 98.513904,89.789356 109.64246,83.247042 Z m -80.7836,-2.126431 15.002778,-5.752782 z m -0.575089,-0.416449 17.33724,-7.001735 z M 30.064065,56.62999 v 7.9e-4 7.89e-4 7.74e-4 c -1.911378,0.0466 -2.551418,0.263521 -3.766236,0.694982 -1.34786,0.478713 -4.025263,1.165393 -5.949443,1.525634 -1.92418,0.360242 -5.335421,1.078448 -7.580305,1.596246 -3.8239599,0.882017 -4.0939389,1.022301 -4.2707538,2.226111 -0.293823,2.000355 0.3358019,3.182277 1.6957748,3.182277 0.656384,0 1.701825,0.187415 2.322152,0.415721 1.025008,0.377849 1.127478,0.884567 1.127478,5.564488 0,6.315329 1.080608,15.728221 1.883689,16.409497 0.8671,0.735646 2.417182,0.613911 4.15117,-0.325527 1.38069,-0.748018 1.450178,-0.911525 0.730014,-1.70684 -1.078003,-1.190225 -1.856077,-18.185963 -0.870095,-19.004259 0.750226,-0.622609 11.299956,-0.806486 11.838532,-0.206297 0.169762,0.189175 0.471999,3.054486 0.671932,6.367697 0.340608,5.645407 0.2843,6.130707 -0.891735,7.718423 -0.6902,0.931804 -1.173998,1.858113 -1.07509,2.058247 0.09891,0.200119 1.521377,-0.06436 3.161495,-0.58829 2.233882,-0.713561 3.084107,-1.231633 3.386992,-2.062952 0.222428,-0.61036 0.222135,-3.88283 -0.0046,-7.272102 l -0.409992,-6.162978 4.311754,0.0015 c 2.371265,0.0011 9.166214,0.171081 15.099106,0.378076 5.932945,0.20698 16.508033,0.497565 23.499396,0.64556 15.654827,0.331493 14.373204,-0.393893 15.074053,8.534974 0.423696,5.398142 1.535795,11.297113 2.608006,13.832767 0.504442,1.192897 1.968366,0.791308 5.387991,-1.477789 1.80725,-1.199212 4.33303,-2.750634 5.61348,-3.447408 1.28039,-0.696773 2.53538,-1.47741 2.78908,-1.735072 0.25376,-0.257663 0.39828,-3.585232 0.32117,-7.393686 -0.0813,-4.015782 0.0945,-7.083397 0.41796,-7.301913 0.34003,-0.229657 6.47767,-0.268865 15.71979,-0.09882 l 14.83149,0.271399 c 0.11394,-0.06739 0.28392,-0.120824 0.51021,-0.142834 0.1329,-0.01214 0.26718,-0.02004 0.40088,-0.02823 0.0428,-0.003 0.0838,-0.0046 0.12298,-0.0046 0.22393,0.0015 0.3873,0.04888 0.48742,0.116878 0.1005,-0.0633 0.23572,-0.117485 0.451,-0.136459 0.32004,-0.02823 0.64363,-0.03643 0.96576,-0.04463 0.28437,-0.0076 0.56844,-0.01063 0.853,-0.01366 0.27394,-0.0015 0.54832,-0.003 0.82228,-0.003 0.13509,0.0061 0.27259,-0.0046 0.40885,-0.003 0.0454,8.2e-4 0.0906,0.003 0.13554,0.0076 0.16397,0.0173 0.25298,0.03977 0.40544,0.07225 0.91865,0.153383 1.86282,0.223282 2.80047,0.298842 0.70005,0.05677 1.40239,0.107467 2.10804,0.101244 0.0273,-6.07e-4 0.0547,-0.0015 0.082,-0.003 0.03,-0.134333 0.22258,-0.254338 0.56601,-0.261988 0.0507,-0.0011 0.10468,0.0015 0.16176,0.0046 0.16397,0.01214 0.0809,0.0046 0.24829,0.0211 0.13928,0.02004 0.27682,0.04539 0.41795,0.05889 0.35341,0.03385 0.54204,0.149513 0.58766,0.272963 1.54282,-0.07741 3.56322,-0.116574 7.22043,-0.116119 5.3491,8.05e-4 13.48214,0.119762 18.07153,0.264341 l 8.3445,0.262778 -0.18115,9.876289 c -0.16221,8.848844 -0.0736,10.01202 0.85414,11.181511 3.10874,3.918895 5.75434,-1.181148 6.92659,-13.353493 0.39696,-4.121959 0.96559,-7.367381 1.32336,-7.551349 0.3451,-0.177442 2.98908,-0.217742 5.87543,-0.08622 2.88635,0.129931 19.65416,0.326559 37.26148,0.43691 17.60684,0.110351 32.23597,0.295685 32.50896,0.411804 0.27297,0.116271 0.47638,3.688115 0.45214,7.937273 -0.0489,8.558941 0.61924,10.800079 3.92796,13.178586 3.22979,2.32189 3.59768,1.246828 3.67283,-10.740699 0.0324,-5.176499 0.19857,-9.663481 0.37014,-9.971188 0.17146,-0.307692 1.45171,-0.677375 2.8449,-0.821271 1.46326,-0.151182 2.67844,-0.521912 2.87678,-0.877737 0.58409,-1.048165 0.36386,-2.712292 -0.49769,-3.762719 -0.45291,-0.552209 -1.23706,-1.546186 -1.74247,-2.208852 -0.50541,-0.662545 -1.54968,-1.746988 -2.31988,-2.409655 l -1.39966,-1.204827 -37.81154,-0.24473 c -18.99376,-0.122646 -27.95066,-0.239296 -34.25601,-0.432994 -0.24714,0.448674 -0.94141,0.875703 -2.15816,1.080117 -0.1525,0.02565 -0.30532,0.05115 -0.45782,0.07681 -0.73463,0.09927 -1.47135,0.217104 -2.22533,0.20238 -1.64149,-0.03203 -2.5474,-0.558858 -2.71963,-1.125608 -0.31297,-0.0076 -0.62548,-0.02246 -0.93842,-0.02747 -2.65264,-0.02854 -5.30551,-0.02565 -7.95841,-0.02899 -0.24029,-0.0015 -0.48059,9.26e-4 -0.7209,0 -0.80072,0.06952 -1.59799,0.160259 -2.4053,0.189828 -1.5727,0.03871 -3.14334,0.01928 -4.71148,-0.08151 -1.41326,-0.09198 -2.82379,-0.20575 -4.24232,-0.25493 -0.52663,-0.03704 -1.04629,-0.108226 -1.5705,-0.156889 -0.41743,0.188886 -0.98677,0.325952 -1.71626,0.370244 -0.36282,0.02201 -0.17807,0.01062 -0.5512,0.03613 -0.66997,0.051 -1.34104,0.115663 -2.01694,0.0973 -0.79475,-0.02155 -1.41652,-0.159971 -1.86661,-0.361608 -0.88469,0.10777 -1.77089,0.210972 -2.67293,0.216497 -1.24656,0.02004 -2.49629,-0.01366 -3.73547,-0.112172 -0.82485,-0.07984 -1.64477,-0.185001 -2.44743,-0.340433 -0.0674,-0.01366 -0.13135,-0.02808 -0.19592,-0.04235 -0.38486,0.08151 -0.81704,0.137369 -1.35299,0.120824 -1.16874,-0.03597 -2.33761,-0.08348 -3.49745,-0.193744 -0.93915,-0.0762 -1.88189,-0.10944 -2.82214,-0.178064 -0.13972,-0.0091 -0.27933,-0.01518 -0.41908,-0.02034 -0.28795,0.05859 -0.60033,0.105039 -0.96577,0.120825 -0.97897,0.04235 -1.95813,0.05313 -2.93827,0.07923 -1.54393,0.05146 -3.08529,0.139646 -4.63065,0.170216 h -4.00652 -2.32217 c -0.67391,0 -1.17692,-0.106252 -1.60237,-0.247082 -0.0302,-0.0061 -0.0503,-0.0091 -0.0992,-0.0173 -0.065,-0.01366 -0.12849,-0.02884 -0.1924,-0.04387 -0.17256,0.06375 -0.39464,0.09927 -0.66056,0.09259 -0.10975,0.02641 -0.17807,0.06937 -0.31089,0.08546 -0.1686,0.02034 -0.3384,0.04159 -0.50338,0.07377 -0.85972,0.167363 -1.42863,-0.03157 -1.58305,-0.321596 -0.50384,0.01214 -0.78634,0.02884 -1.47597,0.03521 -12.27346,0.113387 -73.450588,-1.135642 -92.594501,-1.890383 -6.30009,-0.248388 -9.482993,-0.372127 -11.394371,-0.325528 z m 71.857995,12.116517 c 1.89075,-0.06724 3.64291,0.02307 3.89379,0.200802 0.25089,0.177639 0.62783,3.239381 0.83821,6.803833 0.41305,6.998851 0.0476,8.27253 -2.8392,9.876289 v -7.89e-4 c -1.61164,0.895541 -3.12925,0.906364 -3.52252,0.0091 -0.754105,-1.707143 -2.140719,-11.504199 -1.98277,-14.008464 l 0.174236,-2.758709 z" />
  </g>
  <g
     inkscape:groupmode="layer"
     id="layer2"
     inkscape:label="Layer 2" />
</svg>
