<?xml version="1.0" encoding="UTF-8" standalone="no"?>
<svg
   version="1.0"
   width="190.75081pt"
   height="221.86276pt"
   viewBox="0 0 190.75081 221.86276"
   preserveAspectRatio="xMidYMid"
   id="svg17"
   sodipodi:docname="pocketledge-logo-v2-black.svg"
   inkscape:version="1.3.2 (091e20e, 2023-11-25)"
   xmlns:inkscape="http://www.inkscape.org/namespaces/inkscape"
   xmlns:sodipodi="http://sodipodi.sourceforge.net/DTD/sodipodi-0.dtd"
   xmlns="http://www.w3.org/2000/svg"
   xmlns:svg="http://www.w3.org/2000/svg">
  <defs
     id="defs17" />
  <sodipodi:namedview
     id="namedview17"
     pagecolor="#ffffff"
     bordercolor="#000000"
     borderopacity="0.25"
     inkscape:showpageshadow="2"
     inkscape:pageopacity="0.0"
     inkscape:pagecheckerboard="0"
     inkscape:deskcolor="#d1d1d1"
     inkscape:document-units="pt"
     inkscape:zoom="2.4472222"
     inkscape:cx="177.34393"
     inkscape:cy="158.34279"
     inkscape:window-width="1920"
     inkscape:window-height="1117"
     inkscape:window-x="2256"
     inkscape:window-y="0"
     inkscape:window-maximized="1"
     inkscape:current-layer="svg17" />
  <metadata
     id="metadata1">
Created by potrace 1.10, written by Peter Selinger 2001-2011
</metadata>
  <g
     transform="matrix(0.1,0,0,-0.1,-53.101634,256.6532)"
     fill="#000000"
     stroke="none"
     id="g17">
    <path
       d="m 1294,2528 c -29,-41 -32,-66 -22,-156 3,-22 0,-23 -93,-27 -100,-4 -162,-16 -191,-39 -17,-12 -17,-16 -2,-62 19,-57 44,-80 94,-88 54,-8 80,-44 106,-142 8,-30 14,-66 14,-80 0,-14 5,-24 13,-23 24,3 37,-1 37,-12 0,-6 -9,-9 -20,-6 -25,6 -25,-6 0,-62 11,-24 19,-45 18,-46 -2,-1 -13,-7 -25,-14 -46,-24 -38,-110 18,-195 l 32,-47 -13,-109 c -16,-137 -1,-314 25,-303 9,3 12,15 8,37 -7,47 18,81 71,96 55,15 103,6 138,-28 l 28,-26 -27,79 c -24,74 -25,83 -14,139 17,83 44,130 116,209 72,77 84,112 60,179 -9,23 -23,66 -31,93 -9,28 -26,71 -39,97 -17,36 -21,58 -18,95 7,59 23,79 71,88 78,14 99,30 107,75 4,23 3,46 -1,50 -13,12 -149,38 -222,42 l -64,3 -13,-39 c -7,-21 -25,-51 -40,-66 -25,-26 -28,-27 -63,-15 -30,11 -40,11 -56,-1 -28,-19 -48,-18 -74,6 -12,11 -27,20 -34,20 -9,0 -10,-2 -1,-8 6,-4 13,-21 15,-37 2,-23 9,-31 28,-33 14,-2 29,-8 35,-13 16,-16 35,-10 35,12 0,11 -4,17 -10,14 -5,-3 -10,1 -10,10 0,15 2,15 22,1 14,-10 44,-16 76,-16 43,0 63,-6 103,-32 27,-18 49,-35 49,-39 0,-3 -11,-11 -24,-18 -25,-14 -37,-57 -36,-133 0,-34 -3,-38 -57,-68 -64,-34 -100,-36 -117,-5 -6,11 -16,23 -23,28 -39,25 -80,128 -87,221 -2,16 -10,34 -18,40 -15,11 -17,16 -19,39 0,6 -4,2 -9,-10 -9,-22 -40,-23 -40,-2 0,5 -13,6 -28,3 -32,-6 -47,6 -57,49 -6,24 -5,27 19,27 18,0 26,5 26,17 0,14 4,12 25,-7 21,-20 25,-21 25,-6 0,9 4,15 9,11 5,-3 12,-1 16,4 9,16 123,12 129,-5 7,-17 28,-19 24,-1 -5,26 14,127 24,127 5,0 8,7 4,15 -3,10 1,15 13,15 27,0 31,10 14,36 -8,13 -12,31 -9,40 6,15 8,15 26,-1 11,-10 20,-14 21,-9 0,5 6,-7 13,-26 11,-30 18,-35 42,-33 l 29,2 -24,-18 c -23,-18 -23,-18 -2,-24 13,-3 21,-14 22,-29 1,-12 5,2 10,32 14,92 -13,129 -107,144 -40,6 -42,4 -70,-36 z m 221,-228 c 4,-7 12,-7 24,0 10,5 27,8 37,6 147,-29 145,-28 142,-50 -2,-15 -18,-26 -62,-41 -35,-12 -70,-33 -86,-52 l -28,-31 -33,29 c -18,16 -43,29 -55,29 -13,0 -26,5 -29,10 -3,6 -2,10 3,10 5,0 20,23 33,50 23,48 41,61 54,40 z m 75,-370 c 0,-9 -5,-21 -12,-28 -9,-9 -8,-12 4,-12 19,0 29,-22 18,-40 -12,-19 -2,-32 19,-25 15,4 18,-2 19,-42 1,-54 -14,-93 -36,-93 -10,0 -13,-7 -9,-22 4,-15 -1,-29 -19,-45 -33,-30 -60,-36 -112,-25 -27,7 -44,6 -48,0 -11,-18 14,-31 60,-30 48,1 56,-7 31,-31 -8,-8 -11,-17 -8,-21 4,-3 1,-6 -5,-6 -7,0 -12,-11 -12,-24 0,-34 -10,-56 -25,-56 -10,0 -11,-7 -5,-30 7,-23 5,-30 -6,-30 -18,0 -18,-5 2,-36 23,-34 9,-45 -56,-47 -37,-2 -54,-7 -61,-20 -24,-43 -50,-3 -45,68 6,74 6,71 16,55 5,-8 10,-25 10,-37 0,-12 4,-24 9,-27 10,-7 4,107 -10,178 -5,26 -19,62 -32,80 -39,55 -64,166 -37,166 5,0 16,14 25,30 12,23 13,35 5,50 -13,24 2,27 23,5 8,-8 17,-11 21,-8 4,4 14,7 24,8 31,3 132,39 132,47 0,4 7,8 16,8 10,0 14,6 11,15 -4,8 -1,17 4,21 6,3 8,19 5,35 -3,16 -1,29 4,29 6,0 10,12 10,27 0,26 2,25 35,-21 19,-27 35,-57 35,-66 z"
       id="path1" />
    <path
       d="m 1486,2263 c -3,-3 -6,-10 -6,-15 0,-7 14,-6 74,1 5,0 6,4 3,8 -10,9 -63,14 -71,6 z"
       id="path2" />
    <path
       d="m 1390,1661 c 0,-11 28,-41 39,-41 20,0 18,14 -3,31 -27,21 -36,24 -36,10 z"
       id="path3" />
    <path
       d="m 567,2513 c -27,-49 -6,-113 37,-113 17,0 38,-17 72,-57 75,-91 117,-133 132,-133 8,0 3,9 -11,23 -31,28 -134,154 -139,169 -2,6 -19,11 -37,12 -42,1 -65,31 -39,50 11,8 15,20 11,34 -5,22 -18,29 -26,15 z"
       id="path4" />
    <path
       d="m 1339,2428 c 0,-2 -2,-16 -4,-31 -3,-25 -1,-27 18,-21 42,13 51,26 25,40 -22,13 -37,17 -39,12 z"
       id="path5" />
    <path
       d="m 1323,2326 c 10,-8 16,-24 15,-37 -2,-19 2,-25 22,-27 20,-3 22,-1 13,9 -8,8 -9,18 -2,31 14,26 3,38 -34,38 -29,-1 -30,-2 -14,-14 z"
       id="path6" />
    <path
       d="m 1793,2294 c 4,-4 53,-8 110,-9 56,0 116,-4 132,-9 27,-6 28,-6 10,5 -22,14 -265,27 -252,13 z"
       id="path7" />
    <path
       d="m 2212,2284 c -13,-9 -35,-20 -50,-24 l -27,-8 28,-1 c 15,-1 27,-7 27,-13 0,-7 14,1 29,19 16,17 33,28 37,25 4,-4 4,-1 0,6 -9,16 -17,15 -44,-4 z"
       id="path8" />
    <path
       d="m 2264,2233 c 1,-19 -5,-20 -38,-7 -15,6 -17,4 -11,-6 6,-10 4,-12 -11,-6 -10,4 -76,10 -146,13 -108,4 -130,3 -143,-11 -15,-15 -11,-16 47,-17 279,-4 421,13 368,46 -5,3 -10,1 -10,-6 0,-10 -3,-10 -12,-1 -18,18 -46,15 -44,-5 z"
       id="path9" />
    <path
       d="m 830,2225 c 0,-2 10,-9 21,-16 12,-6 19,-7 15,-1 -6,11 50,9 61,-2 3,-3 16,-6 27,-6 21,1 21,1 2,15 -18,14 -126,22 -126,10 z"
       id="path10" />
    <path
       d="m 1786,2209 c 3,-5 29,-9 57,-8 59,1 54,5 -15,12 -26,2 -45,1 -42,-4 z"
       id="path11" />
    <path
       d="m 1276,2044 c -9,-22 0,-30 17,-15 15,12 77,4 77,-10 0,-9 -15,-11 -68,-12 -40,-1 -5,-21 42,-23 l 44,-3 4,40 4,39 h -57 c -44,0 -58,-4 -63,-16 z"
       id="path12" />
    <path
       d="m 1408,1222 c -44,-5 -33,-22 14,-22 36,0 47,-5 80,-42 21,-23 38,-44 38,-45 0,-2 -10,-8 -22,-13 -19,-7 -20,-9 -5,-9 24,-1 14,-38 -16,-64 l -20,-18 21,-6 c 12,-3 22,-8 22,-12 0,-8 -112,-41 -138,-41 -12,0 -22,-9 -25,-22 -7,-27 83,-289 96,-281 5,3 13,-1 18,-8 10,-17 79,-19 79,-3 0,7 -8,22 -19,35 -16,20 -21,21 -35,10 -13,-11 -17,-10 -22,5 -4,11 -14,27 -22,36 -8,10 -12,26 -9,38 3,11 1,20 -4,20 -5,0 -9,14 -9,31 0,24 -4,30 -15,25 -11,-4 -15,1 -15,19 0,14 5,25 10,25 6,0 10,7 10,15 0,9 12,20 26,25 15,6 22,14 18,22 -5,8 -2,9 9,5 10,-4 20,0 25,9 10,18 48,14 45,-4 -2,-7 2,-12 7,-12 14,0 12,16 -5,49 -13,26 -13,30 1,42 12,10 18,9 31,-4 20,-20 29,-106 14,-147 -9,-28 -9,-31 4,-20 8,6 19,9 25,5 5,-3 10,0 10,7 1,7 10,-12 20,-42 11,-30 19,-66 19,-80 -1,-20 -2,-21 -6,-5 -14,56 -34,82 -64,83 -28,1 -30,-1 -24,-29 7,-33 -1,-38 -21,-12 -18,26 -28,9 -25,-44 1,-18 7,-22 25,-21 16,2 22,7 18,17 -4,10 -1,13 11,8 13,-5 16,-1 14,15 -4,42 28,31 51,-18 19,-39 26,-45 45,-40 12,3 25,6 30,6 14,0 7,20 -13,37 -11,10 -20,26 -20,35 0,10 -29,93 -65,183 -36,91 -65,169 -65,173 0,9 -87,74 -110,82 -8,3 -27,4 -42,2 z"
       id="path13" />
    <path
       d="m 1358,1159 c 13,-5 20,-13 17,-19 -3,-5 0,-10 8,-10 10,0 13,7 10,20 -4,14 -13,20 -32,19 -26,0 -26,0 -3,-10 z"
       id="path14" />
    <path
       d="m 1258,1079 c -12,-7 -18,-22 -17,-47 0,-20 3,-31 6,-24 7,17 20,15 43,-8 15,-15 25,-18 37,-11 12,6 20,5 29,-7 10,-14 15,-13 48,8 21,12 34,26 29,30 -18,16 -75,33 -81,24 -4,-5 -17,-10 -29,-12 -22,-3 -40,28 -28,48 8,13 -15,12 -37,-1 z"
       id="path15" />
    <path
       d="m 1460,892 -22,-18 26,-2 c 20,-1 26,3 26,18 0,24 -2,25 -30,2 z"
       id="path16" />
    <path
       id="path17"
       d="m 1599.4629,689.25293 c -0.5318,0.0288 -1.0364,0.0204 -1.5088,-0.0293 -6.6131,-0.69577 -7.334,-9.26791 -2.959,-26.2207 3,-14.99982 13.9981,-32.00897 22.9981,-39.00879 14.9982,-10.99982 15.0107,-12.9992 1.0107,-18.99902 -8,-3 -44.0008,-6.99805 -78.999,-7.99805 -39,-1 -65.002,-7.00391 -67.002,-14.00391 -3,-8.99982 17.0057,-11.99707 74.0039,-11.99707 43,0 85.993,-3.00195 95.9912,-7.00195 16,-5.99982 16.0059,-4.00044 6.0059,18.99902 -14,31.99946 -4.9953,60.00471 18.0029,55.00489 12,-2 19.9981,-15.00232 22.9981,-37.00196 0.9527,-6.66879 0.8562,-12.12298 1.7431,-16.65527 0.4497,-0.17538 0.9047,-0.38443 1.377,-0.62988 1.3654,-0.7096 2.7243,-1.43281 3.999,-2.29981 0.3408,-0.23516 0.6737,-0.47791 1.0108,-0.71777 2.7579,2.0334 5.357,4.23622 7.8076,6.60644 -0.3165,0.30695 -0.044,1.03292 0.7031,2.10938 0.053,0.41952 0.099,0.8395 0.1465,1.25977 0.044,1.28008 0.1745,2.52794 0.3955,3.76464 v 0.14649 c -0.01,0.0927 -0.01,0.18542 -0.015,0.27832 -0.039,0.4942 -0.056,0.97999 -0.029,1.47949 0.031,10e-4 0.057,-10e-4 0.088,0 0.078,0.3432 0.2418,0.54215 0.542,0.61523 0.1609,0.5781 0.3286,1.15462 0.5274,1.72852 0.069,0.17587 0.1369,0.35113 0.2051,0.52734 -1.0473,0.87328 -1.8848,1.80556 -2.5049,2.79786 -8,12.99964 -8.0039,22.99139 0.9961,35.99121 10,16.99964 8.0019,18.99529 -22.9981,19.99511 -19,1 -44.9988,8.00702 -56.997,17.00684 -11.625,8.24982 -20.1534,12.98731 -25.8545,14.04785 -0.5939,0.11048 -1.1528,0.17633 -1.6846,0.20508 z M 1705.9424,587.2998 c 0.089,-0.0862 0.2293,-0.12898 0.3955,-0.16113 0.029,0.21454 0.059,0.42998 0.088,0.64453 -0.1629,-0.15926 -0.3197,-0.32508 -0.4834,-0.4834 z" />
  </g>
  <path
     d="m 2e-6,200.52117 q 0,-0.83533 0.296406,-1.37425 0.323352,-0.53892 0.862272,-0.86227 0.53892,-0.3503 1.185624,-0.51197 0.67365,-0.16168 1.374245,-0.21557 0.727542,-0.0808 1.401192,-0.0539 0.67365,0 1.239516,0 1.104786,0 2.209572,0.21556 1.104785,0.21557 1.940111,0.75449 0.862272,0.53892 1.401192,1.45509 0.53892,0.88921 0.53892,2.23651 0,1.18563 -0.485028,2.37125 -0.458082,1.15868 -1.21257,2.23652 -0.727542,1.05089 -1.670651,1.94011 -0.94311,0.86227 -1.88622,1.48203 -0.916164,0.61976 -1.778436,0.97006 -0.835326,0.35029 -1.401192,0.26946 -0.323352,1.05089 -0.404189,2.26346 -0.05389,1.18562 -0.02695,2.3443 0.02695,1.13173 0.08084,2.18263 0.05389,1.02394 -0.107784,1.77843 -0.13473,0.72754 -0.53892,1.10479 -0.40419,0.3503 -1.239516,0.21557 Q 1.535922,219.4103 1.401192,217.44324 1.293408,215.47619 1.21257,213.53607 1.13173,211.59596 1.050894,209.76363 0.997004,207.90436 0.862272,206.23371 0.754488,204.56306 0.53892,203.10797 0.323352,201.65289 0,200.52116 Z m 6.655661,-0.7006 q -0.40419,0 -0.997002,0.0269 -0.592812,0.0269 -1.158678,0.18862 -0.53892,0.13473 -0.916163,0.51197 -0.377244,0.3503 -0.377244,1.02395 v 7.05985 q 1.104785,0 2.344301,-0.59281 1.239516,-0.59281 2.263464,-1.50898 1.023948,-0.91616 1.697597,-2.07484 0.67365,-1.15867 0.67365,-2.29041 0,-0.83532 -0.323352,-1.2934 -0.296406,-0.45809 -0.808379,-0.7006 -0.485028,-0.24251 -1.104786,-0.29641 -0.619758,-0.0539 -1.293408,-0.0539 z m 6.359254,14.49695 q 0,-1.37425 0.350298,-2.77544 0.377244,-1.42814 1.023948,-2.72155 0.67365,-1.2934 1.61676,-2.39819 0.94311,-1.13173 2.074841,-1.94011 1.158678,-0.83533 2.505978,-1.29341 1.3473,-0.48503 2.82933,-0.48503 1.482029,0 2.559869,0.59282 1.104786,0.56586 1.832328,1.53592 0.727542,0.97005 1.07784,2.23651 0.350297,1.23952 0.350297,2.53293 0,2.26346 -0.673649,4.47303 -0.67365,2.18263 -1.994004,3.93412 -1.320354,1.72454 -3.287411,2.80238 -1.940112,1.0509 -4.473036,1.0509 -1.508975,0 -2.613761,-0.67365 -1.07784,-0.7006 -1.805382,-1.77844 -0.700596,-1.10479 -1.050894,-2.42514 -0.323352,-1.3473 -0.323352,-2.66765 z m 2.29041,0.59281 q 0,0.72754 0.242514,1.53592 0.242514,0.80838 0.67365,1.48203 0.431136,0.67365 1.07784,1.13173 0.67365,0.45808 1.508975,0.45808 1.805382,0 3.287412,-0.80838 1.48203,-0.83532 2.559869,-2.12873 1.07784,-1.32035 1.670652,-2.93711 0.592812,-1.61676 0.592812,-3.20658 0,-0.91616 -0.05389,-1.88622 -0.05389,-0.97005 -0.350298,-1.75149 -0.296406,-0.80838 -0.94311,-1.2934 -0.619758,-0.51198 -1.805382,-0.51198 -0.377243,0 -1.023947,0.0269 -0.619758,0.0269 -1.239516,0.16167 -0.619758,0.10779 -1.104786,0.3503 -0.458082,0.24252 -0.458082,0.67365 0,0.0539 0.08084,0.24252 0.107784,0.16167 0.215568,0.35029 0.107784,0.18863 0.188622,0.37725 0.08084,0.16167 0.08084,0.21557 0,0.0539 -0.215568,0.2964 -0.215568,0.21557 -0.350298,0.26946 -1.3473,0.3503 -2.263463,0.88922 -0.889218,0.51197 -1.428138,1.3473 -0.511974,0.83533 -0.727542,1.994 -0.215568,1.15868 -0.215568,2.72155 z m 15.574784,-2.3443 q 0,-0.91617 0.242514,-1.99401 0.26946,-1.07784 0.727542,-2.15568 0.458082,-1.10478 1.104786,-2.12873 0.646704,-1.05089 1.455084,-1.83233 0.808379,-0.80838 1.751489,-1.26646 0.94311,-0.48503 1.994004,-0.48503 0.862272,0 1.61676,0.24252 0.754487,0.21557 1.293407,0.67365 0.53892,0.45808 0.835326,1.15868 0.323352,0.67364 0.323352,1.61675 -0.592812,0 -0.970056,-0.2964 -0.350298,-0.32335 -0.67365,-0.7006 -0.296405,-0.37724 -0.673649,-0.67365 -0.350298,-0.2964 -0.916164,-0.2964 -0.835326,0 -1.61676,0.43113 -0.754488,0.43114 -1.428138,1.15868 -0.646704,0.72754 -1.158677,1.64371 -0.485028,0.91616 -0.862272,1.85927 -0.350298,0.91616 -0.565866,1.80538 -0.188622,0.88922 -0.188622,1.53592 0,1.4012 0.40419,2.64071 0.431136,1.21257 1.21257,2.12873 0.781433,0.88922 1.940111,1.4012 1.158678,0.51197 2.640708,0.51197 0.94311,0 1.778435,-0.26946 0.862272,-0.29641 1.643706,-0.61976 0.80838,-0.3503 1.589814,-0.6467 0.781434,-0.29641 1.562868,-0.29641 0.107783,0 0.296405,0.0269 0.215568,0 0.377244,0.0539 0.188622,0.0539 0.323354,0.18862 0.13473,0.10779 0.13473,0.3503 0,0.97006 -0.75449,1.64371 -0.727541,0.67365 -1.751489,1.10478 -1.023948,0.40419 -2.128734,0.59281 -1.104786,0.18863 -1.805382,0.18863 -2.047895,0 -3.826331,-0.64671 -1.778436,-0.67365 -3.098789,-1.88622 -1.320354,-1.21257 -2.074842,-2.91017 -0.754488,-1.72454 -0.754488,-3.85327 z m 17.326275,-9.40415 q 0,-0.51198 -0.0269,-1.10479 -0.0269,-0.59281 0.0808,-1.10479 0.13473,-0.51197 0.43114,-0.83532 0.32335,-0.3503 1.02395,-0.3503 0.51197,0.7006 0.6467,1.75149 0.16168,1.02395 0.21557,2.18263 0.0539,1.13173 0.10778,2.26346 0.0808,1.13173 0.45808,1.994 0.0269,0.10779 0.24252,0.32335 0.24251,0.18863 0.32335,0.24252 0.80838,-0.7006 1.45508,-1.45509 0.67365,-0.75448 1.32036,-1.45508 0.6467,-0.72754 1.2934,-1.37424 0.64671,-0.64671 1.4012,-1.13174 0.78143,-0.48502 1.72454,-0.75448 0.97006,-0.29641 2.18263,-0.29641 0,0.6467 -0.45809,1.29341 -0.45808,0.6467 -1.15867,1.32035 -0.7006,0.6467 -1.53593,1.3473 -0.83532,0.67365 -1.61676,1.40119 -0.78143,0.7006 -1.40119,1.42814 -0.61975,0.7006 -0.88921,1.42814 0.45808,0.10778 1.50897,0.53892 1.07784,0.40419 2.42514,1.02395 1.37425,0.59281 2.82933,1.2934 1.45508,0.7006 2.66765,1.4012 1.21257,0.67365 1.96706,1.2934 0.78143,0.59281 0.78143,0.97006 0,0.0808 0,0.3503 0,0.24251 -0.0539,0.51197 -0.0269,0.26946 -0.16167,0.48503 -0.13473,0.18862 -0.43114,0.18862 -1.13173,-0.0269 -2.12873,-0.40419 -0.997,-0.40419 -1.94011,-0.97006 -0.94311,-0.59281 -1.88622,-1.21256 -0.91617,-0.64671 -1.88622,-1.21257 -0.97006,-0.59282 -2.02095,-0.94311 -1.02395,-0.37725 -2.23652,-0.43114 -0.40419,0.6467 -0.3503,1.26646 0.0539,0.59281 0.3503,1.21257 0.32335,0.59281 0.75449,1.23952 0.43113,0.61975 0.75448,1.32035 0.32336,0.67365 0.43114,1.42814 0.10778,0.75449 -0.24251,1.58981 -0.0539,0.0808 -0.21557,0.18862 -0.13473,0.0808 -0.32335,0.18863 -0.16168,0.10778 -0.3503,0.16167 -0.18862,0.0539 -0.24251,0.0539 -0.3503,0 -0.78144,-0.67365 -0.40419,-0.67365 -0.88922,-1.83232 -0.45808,-1.15868 -0.97005,-2.64071 -0.48503,-1.50898 -0.97006,-3.09879 -0.45808,-1.61676 -0.86227,-3.23352 -0.37724,-1.64371 -0.7006,-3.0449 -0.2964,-1.42814 -0.48502,-2.50597 -0.16168,-1.07784 -0.16168,-1.61676 z m 20.23645,-2.72155 q -0.13473,0 -0.40419,-0.0539 -0.24252,-0.0808 -0.51198,-0.16168 -0.26946,-0.10778 -0.51197,-0.18862 -0.24252,-0.10778 -0.32335,-0.16168 -0.0269,-0.0539 -0.0269,-0.10778 -0.0269,-0.0539 -0.0269,-0.13473 0,-0.37724 0.29641,-0.6467 0.29641,-0.26946 0.67365,-0.43114 0.40419,-0.18862 0.78143,-0.26946 0.37725,-0.10778 0.59282,-0.13473 h 0.32335 0.26946 q 0.6467,0.0539 1.6437,0.16168 0.99701,0.10778 2.10179,0.24251 1.13173,0.10778 2.26346,0.24251 1.15868,0.10779 2.07485,0.24252 0.94311,0.10778 1.56286,0.18862 0.64671,0.0539 0.75449,0.0539 0.21557,0.0269 0.53892,0.10779 0.3503,0.0539 0.7006,0.21556 0.3503,0.13473 0.6467,0.3503 0.29641,0.18862 0.43114,0.48503 -0.21557,0.43114 -0.37725,0.67365 -0.16167,0.21557 -0.35029,0.3503 -0.18863,0.10778 -0.40419,0.10778 -0.18863,0 -0.48503,0 -1.13173,0 -2.29041,-0.0808 -1.13173,-0.0808 -2.26347,-0.16167 -1.13173,-0.0808 -2.2904,-0.16168 -1.13174,-0.0808 -2.29041,-0.0808 0,0.48503 -0.13473,1.45509 -0.10779,0.97005 -0.18863,2.04789 -0.0539,1.07784 0.0539,2.15568 0.13473,1.0509 0.61975,1.77844 0.94311,-0.56587 1.96706,-0.59281 1.02395,-0.0269 2.07484,-0.0269 0.45808,0 1.15868,0 0.7006,0 1.3473,0.16168 0.67365,0.16167 1.13173,0.53892 0.45808,0.37724 0.45808,1.13173 0,0.53892 -0.21556,0.80838 -0.21557,0.26946 -0.99701,0.26946 -0.0808,0 -0.35029,-0.0808 -0.24252,-0.0808 -0.53892,-0.18862 -0.26946,-0.10779 -0.51198,-0.18862 -0.24251,-0.0808 -0.32335,-0.0808 -0.0269,0 -0.21557,0 -0.16167,-0.0269 -0.40419,-0.0269 -0.24251,0 -0.48503,0 -0.21556,-0.0269 -0.35029,-0.0269 -0.61976,0 -1.21257,0.0808 -0.56587,0.0808 -0.997,0.32336 -0.43114,0.24251 -0.7006,0.70059 -0.24251,0.45808 -0.24251,1.18563 0,0.24251 0.0539,0.83532 0.0539,0.59281 0.13473,1.32036 0.10778,0.70059 0.26946,1.45508 0.16167,0.75449 0.43113,1.40119 0.26946,0.61976 0.59282,1.05089 0.35029,0.40419 0.83532,0.40419 0.0539,0 0.26946,-0.0269 0.21557,-0.0269 0.26946,-0.0269 0.91616,-0.61976 1.83233,-1.3473 0.94311,-0.72754 1.94011,-1.3473 0.997,-0.6467 2.07484,-1.07784 1.07784,-0.45808 2.23652,-0.45808 v 1.32035 q 0,0.10779 -0.53892,0.59282 -0.51197,0.48502 -1.37425,1.13173 -0.83532,0.6467 -1.88622,1.37424 -1.05089,0.72755 -2.10178,1.3473 -1.0509,0.59282 -2.02095,0.99701 -0.94311,0.40419 -1.58982,0.40419 -0.91616,0 -1.6437,-0.80838 -0.7006,-0.83533 -1.26646,-2.18263 -0.56587,-1.37425 -0.94311,-3.15268 -0.37725,-1.77844 -0.67365,-3.66466 -0.26946,-1.88622 -0.45809,-3.74549 -0.16167,-1.88622 -0.26946,-3.47603 -0.10778,-1.58982 -0.16167,-2.74849 -0.0269,-1.18563 -0.0539,-1.64371 z m 27.13461,5.20058 q -0.10779,-0.37725 -0.43114,-0.51198 -0.2964,-0.13473 -0.67365,-0.13473 -0.3503,-0.0269 -0.70059,0.0269 -0.3503,0.0539 -0.53892,0.0539 -0.45809,-0.0269 -1.58982,-0.10778 -1.13173,-0.0808 -2.45208,-0.16168 -1.29341,-0.10778 -2.42514,-0.18862 -1.13173,-0.10778 -1.58982,-0.13473 0,-0.0539 -0.0269,-0.26946 -0.0269,-0.21557 -0.0269,-0.29641 0,-0.37724 0.0539,-0.67365 0.0808,-0.2964 0.53892,-0.45808 2.53293,0.0539 4.98501,-0.0269 2.47903,-0.0808 4.93112,-0.21557 2.47903,-0.16168 4.931124,-0.29641 2.47903,-0.13473 4.98501,-0.13473 0,1.02395 -0.48503,1.50898 -0.48503,0.45808 -1.21257,0.61976 -0.7006,0.16167 -1.56287,0.13473 -0.86227,-0.0269 -1.67065,0.0269 -0.781434,0.0539 -1.401194,0.32335 -0.59281,0.24252 -0.78144,0.91617 -0.0269,0.16167 -0.0539,0.61975 -0.0269,0.45809 -0.0539,0.97006 0,0.51197 -0.0269,0.97006 0,0.43113 0,0.61975 0,1.53593 0.37725,3.0449 0.40419,1.48203 0.86227,2.96406 0.485034,1.45508 0.862274,2.93711 0.40419,1.45509 0.40419,2.96406 0,1.13174 -1.293414,1.13174 -0.78143,0 -1.40119,-1.07784 -0.59281,-1.07784 -1.05089,-2.7485 -0.43114,-1.67065 -0.72754,-3.6377 -0.26946,-1.96706 -0.45809,-3.77244 -0.16167,-1.80539 -0.24251,-3.17963 -0.0539,-1.37425 -0.0539,-1.80538 z m 10.940084,-1.50898 q 0,-0.53892 0.35029,-0.70059 0.37725,-0.16168 0.80838,-0.16168 0.0808,0 0.29641,0.0269 0.24251,0.0269 0.29641,0.0269 0.0808,0.83533 0.16167,2.02095 0.0808,1.15868 0.18862,2.53292 0.10779,1.3473 0.26946,2.80239 0.16168,1.45508 0.45809,2.85627 0.2964,1.37425 0.72754,2.64071 0.43113,1.23952 1.05089,2.15568 0.13473,0.24251 0.24252,0.37724 0.13472,0.10779 0.24251,0.18863 0.13473,0.0539 0.2964,0.0808 0.16168,0 0.40419,0 1.10479,0 2.10179,-0.37724 1.02395,-0.37724 2.02095,-0.83533 0.997,-0.45808 2.02095,-0.83532 1.02395,-0.37725 2.15568,-0.37725 0.24252,0 0.61976,0 0.37724,-0.0269 0.7006,0.0269 0.32335,0.0539 0.56586,0.26946 0.24251,0.21557 0.24251,0.6467 0,0.40419 -0.72754,0.88922 -0.72754,0.45808 -1.85927,0.94311 -1.13173,0.45808 -2.47903,0.91617 -1.32036,0.45808 -2.55987,0.80838 -1.21257,0.35029 -2.15568,0.56586 -0.94311,0.18862 -1.23952,0.18862 -0.97005,0 -1.72454,-0.6467 -0.72754,-0.67365 -1.29341,-1.77844 -0.53892,-1.13173 -0.91616,-2.55987 -0.37725,-1.45508 -0.61976,-3.01795 -0.24251,-1.56286 -0.37724,-3.09879 -0.13473,-1.53592 -0.18863,-2.85627 -0.0539,-1.32036 -0.0808,-2.31736 0,-0.997 0,-1.40119 z m 18.48495,-3.6916 q -0.13473,0 -0.40419,-0.0539 -0.24252,-0.0808 -0.51198,-0.16168 -0.26946,-0.10778 -0.51197,-0.18862 -0.24252,-0.10778 -0.32335,-0.16168 -0.0269,-0.0539 -0.0269,-0.10778 -0.0269,-0.0539 -0.0269,-0.13473 0,-0.37724 0.29641,-0.6467 0.29641,-0.26946 0.67365,-0.43114 0.40419,-0.18862 0.78143,-0.26946 0.37725,-0.10778 0.59281,-0.13473 h 0.32336 0.26946 q 0.6467,0.0539 1.6437,0.16168 0.997,0.10778 2.10179,0.24251 1.13173,0.10778 2.26346,0.24251 1.15868,0.10779 2.07485,0.24252 0.94311,0.10778 1.56286,0.18862 0.64671,0.0539 0.75449,0.0539 0.21557,0.0269 0.53892,0.10779 0.3503,0.0539 0.7006,0.21556 0.35029,0.13473 0.6467,0.3503 0.29641,0.18862 0.43114,0.48503 -0.21557,0.43114 -0.37725,0.67365 -0.16167,0.21557 -0.3503,0.3503 -0.18862,0.10778 -0.40419,0.10778 -0.18862,0 -0.48502,0 -1.13173,0 -2.29041,-0.0808 -1.13173,-0.0808 -2.26347,-0.16167 -1.13173,-0.0808 -2.29041,-0.16168 -1.13173,-0.0808 -2.29041,-0.0808 0,0.48503 -0.13473,1.45509 -0.10778,0.97005 -0.18862,2.04789 -0.0539,1.07784 0.0539,2.15568 0.13473,1.0509 0.61976,1.77844 0.94311,-0.56587 1.96706,-0.59281 1.02395,-0.0269 2.07484,-0.0269 0.45808,0 1.15868,0 0.7006,0 1.3473,0.16168 0.67365,0.16167 1.13173,0.53892 0.45808,0.37724 0.45808,1.13173 0,0.53892 -0.21556,0.80838 -0.21557,0.26946 -0.99701,0.26946 -0.0808,0 -0.35029,-0.0808 -0.24252,-0.0808 -0.53892,-0.18862 -0.26946,-0.10779 -0.51198,-0.18862 -0.24251,-0.0808 -0.32335,-0.0808 -0.0269,0 -0.21557,0 -0.16167,-0.0269 -0.40419,-0.0269 -0.24251,0 -0.48503,0 -0.21556,-0.0269 -0.35029,-0.0269 -0.61976,0 -1.21257,0.0808 -0.56587,0.0808 -0.99701,0.32336 -0.43113,0.24251 -0.70059,0.70059 -0.24252,0.45808 -0.24252,1.18563 0,0.24251 0.0539,0.83532 0.0539,0.59281 0.13473,1.32036 0.10778,0.70059 0.26946,1.45508 0.16167,0.75449 0.43113,1.40119 0.26946,0.61976 0.59281,1.05089 0.3503,0.40419 0.83533,0.40419 0.0539,0 0.26946,-0.0269 0.21557,-0.0269 0.26946,-0.0269 0.91616,-0.61976 1.83233,-1.3473 0.94311,-0.72754 1.94011,-1.3473 0.997,-0.6467 2.07484,-1.07784 1.07784,-0.45808 2.23652,-0.45808 v 1.32035 q 0,0.10779 -0.53892,0.59282 -0.51198,0.48502 -1.37425,1.13173 -0.83532,0.6467 -1.88622,1.37424 -1.05089,0.72755 -2.10178,1.3473 -1.0509,0.59282 -2.02095,0.99701 -0.94311,0.40419 -1.58982,0.40419 -0.91616,0 -1.6437,-0.80838 -0.7006,-0.83533 -1.26647,-2.18263 -0.56586,-1.37425 -0.94311,-3.15268 -0.37724,-1.77844 -0.67365,-3.66466 -0.26946,-1.88622 -0.45808,-3.74549 -0.16167,-1.88622 -0.26946,-3.47603 -0.10778,-1.58982 -0.16167,-2.74849 -0.0269,-1.18563 -0.0539,-1.64371 z m 16.73346,3.09879 q 0,-1.13173 0.6467,-1.85927 0.67365,-0.72755 1.64371,-1.13174 0.997,-0.43113 2.12873,-0.56586 1.13174,-0.16168 2.0479,-0.16168 1.75149,0 2.93711,0.7006 1.21257,0.67365 1.94011,1.80538 0.75449,1.13173 1.07784,2.61376 0.32336,1.48203 0.32336,3.01795 0,1.02395 -0.21557,2.42514 -0.21557,1.37425 -0.64671,2.85628 -0.43113,1.45508 -1.07784,2.91016 -0.61975,1.42814 -1.45508,2.58682 -0.83533,1.13173 -1.88622,1.83233 -1.02395,0.70059 -2.26346,0.70059 -0.24252,0 -0.59281,-0.6467 -0.32336,-0.67365 -0.75449,-1.77844 -0.40419,-1.10478 -0.86227,-2.53292 -0.43114,-1.45508 -0.86228,-2.991 -0.43113,-1.56287 -0.80838,-3.12574 -0.37724,-1.56287 -0.70059,-2.88322 -0.29641,-1.32036 -0.45808,-2.31736 -0.16168,-0.997 -0.16168,-1.45508 z m 2.23652,1.53592 q 0,0.86227 0.10778,1.96706 0.13473,1.10478 0.37725,2.29041 0.26946,1.18562 0.6467,2.39819 0.40419,1.18563 0.91616,2.23652 0.51198,1.05089 1.15868,1.91317 0.64671,0.83532 1.45509,1.32035 0.91616,-1.29341 1.58981,-2.31736 0.67365,-1.02394 1.10478,-2.04789 0.43114,-1.02395 0.61976,-2.18263 0.21557,-1.15868 0.21557,-2.6946 0,-1.10478 -0.13473,-2.15568 -0.13473,-1.05089 -0.59281,-1.85927 -0.43114,-0.83533 -1.23952,-1.32035 -0.80838,-0.51198 -2.12873,-0.51198 -1.07784,0 -2.10179,0.3503 -0.997,0.32335 -1.94011,0.86227 0,0.0808 -0.0269,0.32335 0,0.24252 0,0.53892 0,0.26946 -0.0269,0.53892 0,0.24252 0,0.3503 z m 10.96701,7.16764 q 0,-1.3473 0.37725,-2.7485 0.40419,-1.40119 1.07784,-2.72154 0.70059,-1.32036 1.6437,-2.50598 0.97006,-1.18562 2.12873,-2.04789 1.18563,-0.88922 2.50598,-1.37425 1.3473,-0.51197 2.77544,-0.51197 0.61976,0 1.58981,0.13473 0.99701,0.13473 1.91317,0.45808 0.94311,0.32335 1.58981,0.86227 0.67365,0.51197 0.67365,1.23952 0,0.0539 -0.0269,0.10778 0,0.0269 0,0.0808 -0.0269,0.0539 -0.0269,0.10778 -0.0539,0.0808 -0.26946,0.32335 -0.21557,0.21557 -0.29641,0.26946 -0.0539,0.0269 -0.13473,0.0269 -0.0808,0.0269 -0.16167,0.0269 -0.10779,0 -0.16168,-0.0269 -0.0539,0 -0.10778,-0.0269 -0.13473,-0.0808 -0.6467,-0.32335 -0.51198,-0.26946 -1.10479,-0.56586 -0.59281,-0.29641 -1.10479,-0.53892 -0.51197,-0.26946 -0.6467,-0.32336 -0.10778,0 -0.21557,-0.0269 -0.0808,0 -0.16167,0 -0.0808,-0.0269 -0.13473,-0.0269 -1.26647,0 -2.42514,0.45808 -1.15868,0.45809 -2.12874,1.26647 -0.97005,0.80838 -1.75149,1.85927 -0.78143,1.05089 -1.3473,2.23652 -0.53892,1.15867 -0.83532,2.39819 -0.26946,1.21257 -0.26946,2.37125 0,1.50897 0.48503,2.6946 0.48502,1.18562 1.34729,1.994 0.86228,0.78143 2.0479,1.18562 1.21257,0.40419 2.61376,0.40419 0.80838,0 1.99401,-0.21556 1.18562,-0.21557 2.26346,-0.7006 1.10479,-0.48503 1.85927,-1.23952 0.75449,-0.78143 0.75449,-1.91316 0,-0.45808 -0.13473,-0.7006 -0.13473,-0.26946 -0.37724,-0.37724 -0.24252,-0.13473 -0.59282,-0.13473 -0.35029,-0.0269 -0.72754,-0.0269 -0.59281,0 -1.02394,0.18863 -0.43114,0.18862 -0.86228,0.43113 -0.40419,0.24252 -0.83532,0.43114 -0.40419,0.18862 -0.97006,0.18862 -0.70059,0 -1.10478,-0.21557 -0.40419,-0.21557 -0.40419,-0.997 0,-0.75449 0.53892,-1.21257 0.56586,-0.48503 1.32035,-0.72754 0.78143,-0.24252 1.61676,-0.32335 0.83533,-0.0808 1.37425,-0.0808 0.97005,0 1.80538,0.16167 0.83532,0.13473 1.42813,0.53892 0.61976,0.37725 0.94311,1.07784 0.32336,0.67365 0.32336,1.75149 0,1.67065 -0.91617,2.91017 -0.91616,1.21257 -2.31735,1.994 -1.37425,0.78144 -2.99101,1.18563 -1.58981,0.37724 -2.96406,0.37724 -1.94011,0 -3.58382,-0.67365 -1.61676,-0.67365 -2.77543,-1.88622 -1.15868,-1.23951 -1.80538,-2.91016 -0.64671,-1.6976 -0.64671,-3.63771 z m 20.82926,-11.80235 q -0.13473,0 -0.40419,-0.0539 -0.24251,-0.0808 -0.51197,-0.16168 -0.26946,-0.10778 -0.51197,-0.18862 -0.24252,-0.10778 -0.32336,-0.16168 -0.0269,-0.0539 -0.0269,-0.10778 -0.0269,-0.0539 -0.0269,-0.13473 0,-0.37724 0.29641,-0.6467 0.2964,-0.26946 0.67365,-0.43114 0.40419,-0.18862 0.78143,-0.26946 0.37725,-0.10778 0.59281,-0.13473 h 0.32336 0.26946 q 0.6467,0.0539 1.6437,0.16168 0.997,0.10778 2.10179,0.24251 1.13173,0.10778 2.26346,0.24251 1.15868,0.10779 2.07484,0.24252 0.94311,0.10778 1.56287,0.18862 0.64671,0.0539 0.75449,0.0539 0.21557,0.0269 0.53892,0.10779 0.3503,0.0539 0.70059,0.21556 0.3503,0.13473 0.64671,0.3503 0.2964,0.18862 0.43113,0.48503 -0.21556,0.43114 -0.37724,0.67365 -0.16168,0.21557 -0.3503,0.3503 -0.18862,0.10778 -0.40419,0.10778 -0.18862,0 -0.48502,0 -1.13174,0 -2.29041,-0.0808 -1.13174,-0.0808 -2.26347,-0.16167 -1.13173,-0.0808 -2.29041,-0.16168 -1.13173,-0.0808 -2.29041,-0.0808 0,0.48503 -0.13473,1.45509 -0.10778,0.97005 -0.18862,2.04789 -0.0539,1.07784 0.0539,2.15568 0.13473,1.0509 0.61976,1.77844 0.94311,-0.56587 1.96706,-0.59281 1.02395,-0.0269 2.07484,-0.0269 0.45808,0 1.15868,0 0.70059,0 1.3473,0.16168 0.67365,0.16167 1.13173,0.53892 0.45808,0.37724 0.45808,1.13173 0,0.53892 -0.21557,0.80838 -0.21556,0.26946 -0.997,0.26946 -0.0808,0 -0.3503,-0.0808 -0.24251,-0.0808 -0.53892,-0.18862 -0.26946,-0.10779 -0.51197,-0.18862 -0.24251,-0.0808 -0.32335,-0.0808 -0.0269,0 -0.21557,0 -0.16168,-0.0269 -0.40419,-0.0269 -0.24251,0 -0.48503,0 -0.21557,-0.0269 -0.3503,-0.0269 -0.61975,0 -1.21257,0.0808 -0.56586,0.0808 -0.997,0.32336 -0.43113,0.24251 -0.70059,0.70059 -0.24252,0.45808 -0.24252,1.18563 0,0.24251 0.0539,0.83532 0.0539,0.59281 0.13473,1.32036 0.10779,0.70059 0.26946,1.45508 0.16168,0.75449 0.43114,1.40119 0.26946,0.61976 0.59281,1.05089 0.3503,0.40419 0.83533,0.40419 0.0539,0 0.26946,-0.0269 0.21557,-0.0269 0.26946,-0.0269 0.91616,-0.61976 1.83233,-1.3473 0.94311,-0.72754 1.94011,-1.3473 0.997,-0.6467 2.07484,-1.07784 1.07784,-0.45808 2.23652,-0.45808 v 1.32035 q 0,0.10779 -0.53892,0.59282 -0.51198,0.48502 -1.37425,1.13173 -0.83532,0.6467 -1.88622,1.37424 -1.05089,0.72755 -2.10179,1.3473 -1.05089,0.59282 -2.02095,0.99701 -0.94311,0.40419 -1.58981,0.40419 -0.91616,0 -1.64371,-0.80838 -0.70059,-0.83533 -1.26646,-2.18263 -0.56586,-1.37425 -0.94311,-3.15268 -0.37724,-1.77844 -0.67365,-3.66466 -0.26946,-1.88622 -0.45808,-3.74549 -0.16167,-1.88622 -0.26946,-3.47603 -0.10778,-1.58982 -0.16167,-2.74849 -0.0269,-1.18563 -0.0539,-1.64371 z"
     id="text40"
     style="font-size:27.5927px;font-family:'Gloria Hallelujah';-inkscape-font-specification:'Gloria Hallelujah';stroke-width:0.94066"
     aria-label="POCKETLEDGE" />
</svg>
