<?xml version="1.0" encoding="UTF-8" standalone="no"?>
<!-- Created with Inkscape (http://www.inkscape.org/) -->

<svg
   width="27.17767mm"
   height="22.644611mm"
   viewBox="0 0 27.17767 22.644611"
   version="1.1"
   id="svg1"
   inkscape:version="1.3.2 (091e20e, 2023-11-25)"
   sodipodi:docname="favi.svg"
   xmlns:inkscape="http://www.inkscape.org/namespaces/inkscape"
   xmlns:sodipodi="http://sodipodi.sourceforge.net/DTD/sodipodi-0.dtd"
   xmlns="http://www.w3.org/2000/svg"
   xmlns:svg="http://www.w3.org/2000/svg">
  <sodipodi:namedview
     id="namedview1"
     pagecolor="#ffffff"
     bordercolor="#000000"
     borderopacity="0.25"
     inkscape:showpageshadow="2"
     inkscape:pageopacity="0.0"
     inkscape:pagecheckerboard="0"
     inkscape:deskcolor="#d1d1d1"
     inkscape:document-units="mm"
     inkscape:zoom="2.2238748"
     inkscape:cx="34.624252"
     inkscape:cy="179.64141"
     inkscape:window-width="2256"
     inkscape:window-height="1427"
     inkscape:window-x="0"
     inkscape:window-y="0"
     inkscape:window-maximized="1"
     inkscape:current-layer="layer1" />
  <defs
     id="defs1" />
  <g
     inkscape:label="Layer 1"
     inkscape:groupmode="layer"
     id="layer1"
     transform="translate(-80.833544,-66.640817)">
    <text
       xml:space="preserve"
       style="font-size:11.2889px;font-family:'Gloria Hallelujah';-inkscape-font-specification:'Gloria Hallelujah';fill:#000000;fill-opacity:1;stroke:#ffffff;stroke-width:0.264583"
       x="50.759075"
       y="89.36718"
       id="text1"><tspan
         sodipodi:role="line"
         id="tspan1"
         style="fill:#000000;fill-opacity:1;stroke-width:0.264583"
         x="50.759075"
         y="89.36718" /></text>
    <path
       d="m 80.965836,69.557434 q 0,-0.768945 0.272851,-1.265039 0.297656,-0.496093 0.79375,-0.79375 0.496094,-0.322461 1.091406,-0.471289 0.620118,-0.148828 1.265039,-0.198437 0.669727,-0.07441 1.289844,-0.04961 0.620117,0 1.141016,0 1.016992,0 2.033984,0.198438 1.016992,0.198437 1.785938,0.694531 0.79375,0.496094 1.289843,1.339453 0.496094,0.818555 0.496094,2.058789 0,1.091407 -0.446484,2.182813 -0.42168,1.066601 -1.116211,2.058789 -0.669727,0.967383 -1.537891,1.785937 -0.868164,0.79375 -1.736328,1.364258 -0.843359,0.570508 -1.637109,0.892969 -0.768946,0.322461 -1.289844,0.248047 -0.297656,0.967382 -0.37207,2.083593 -0.04961,1.091407 -0.02481,2.158008 0.02481,1.041797 0.07441,2.00918 0.04961,0.942578 -0.09922,1.637109 -0.124023,0.669727 -0.496093,1.016992 -0.372071,0.322461 -1.141016,0.198438 -0.223242,-1.761133 -0.347266,-3.571875 -0.09922,-1.810742 -0.173633,-3.59668 -0.07441,-1.785937 -0.148828,-3.472656 -0.04961,-1.711523 -0.173632,-3.249414 -0.09922,-1.537891 -0.297657,-2.877344 -0.198437,-1.339453 -0.496093,-2.38125 z m 6.126757,-0.644921 q -0.37207,0 -0.917773,0.0248 -0.545703,0.02481 -1.066602,0.173633 -0.496093,0.124023 -0.843359,0.471289 -0.347266,0.322461 -0.347266,0.942578 v 6.498828 q 1.016993,0 2.158008,-0.545703 1.141016,-0.545703 2.083594,-1.389062 0.942578,-0.84336 1.562695,-1.909961 0.620117,-1.066602 0.620117,-2.108399 0,-0.768945 -0.297656,-1.190625 -0.272852,-0.421679 -0.744141,-0.644922 -0.446484,-0.223242 -1.016992,-0.272851 -0.570508,-0.04961 -1.190625,-0.04961 z m 5.853907,3.968749 q 0,-0.496093 0.322461,-0.644921 0.347265,-0.148829 0.74414,-0.148829 0.07441,0 0.272852,0.02481 0.223242,0.02481 0.272851,0.02481 0.07442,0.768945 0.148829,1.860351 0.07441,1.066602 0.173632,2.331641 0.09922,1.240234 0.248047,2.579687 0.148828,1.339454 0.42168,2.629297 0.272852,1.265039 0.669727,2.43086 0.396875,1.141015 0.967382,1.984375 0.124024,0.223242 0.223243,0.347265 0.124023,0.09922 0.223242,0.173633 0.124023,0.04961 0.272851,0.07441 0.148828,0 0.372071,0 1.016992,0 1.934762,-0.347266 0.94258,-0.347265 1.86035,-0.768945 0.91778,-0.42168 1.86036,-0.768945 0.94257,-0.347266 1.98437,-0.347266 0.22324,0 0.57051,0 0.34726,-0.0248 0.64492,0.02481 0.29766,0.04961 0.5209,0.248047 0.22324,0.198437 0.22324,0.595312 0,0.372071 -0.66973,0.818555 -0.66972,0.42168 -1.71152,0.868164 -1.0418,0.42168 -2.28203,0.843359 -1.21543,0.42168 -2.35644,0.744141 -1.116216,0.322461 -1.98438,0.520898 -0.868164,0.173633 -1.141016,0.173633 -0.892968,0 -1.5875,-0.595312 -0.669726,-0.620117 -1.190625,-1.63711 -0.496093,-1.041796 -0.843359,-2.356445 -0.347266,-1.339453 -0.570508,-2.778125 -0.223242,-1.438672 -0.347265,-2.852539 -0.124024,-1.413867 -0.173633,-2.629297 -0.04961,-1.215429 -0.07441,-2.133203 0,-0.917773 0,-1.289844 z"
       id="text2"
       style="font-size:25.4px;font-family:'Gloria Hallelujah';-inkscape-font-specification:'Gloria Hallelujah';stroke:#ffffff;stroke-width:0.264583;fill:#9ecb2e;fill-opacity:1"
       aria-label="PL" />
  </g>
</svg>
